<svg width="1061" height="378" viewBox="0 0 1061 378" fill="none" xmlns="http://www.w3.org/2000/svg">
<path d="M1027.12 36C1026.21 37.53 524.924 324.29 524.924 324.29L406.794 324.34L1027.12 36ZM737.934 229.32C737.972 229.36 756.58 248.368 763.833 255.83C785.326 277.942 829.274 324.266 829.344 324.34H717.684L667.773 270.71L737.934 229.32ZM403.294 108.11C485.854 107.05 550.474 155.991 482.184 233.721C427.934 295.481 345.734 321.61 265.344 323.36C191.404 324.98 34.0238 324.101 28.6738 324.101L171.483 183.871H252.904C252.866 183.912 161.572 280.162 162.974 280.11C223.764 277.69 303.753 280.66 348.483 263.78C376.793 253.1 436.723 212.941 435.483 178.711C434.523 152.311 396.344 147.331 376.264 146.961C299.514 145.561 178.563 146.961 178.563 146.961L84.0635 108.11H403.294ZM681.474 170.517L609.034 205.137L521.634 112.727H625.034L681.474 170.517Z" fill="black"/>
</svg>
