<svg xmlns="http://www.w3.org/2000/svg" width="900" height="1200" viewBox="0 0 900 1200">
  <defs>
    <linearGradient id="bg" x1="0" x2="1" y1="0" y2="1"><stop stop-color="#101820"/><stop offset="1" stop-color="#05070a"/></linearGradient>
    <linearGradient id="skin" x1="0" x2="1" y1="0" y2="1"><stop stop-color="#c9f1ff"/><stop offset="1" stop-color="#d8f36a"/></linearGradient>
  </defs>
  <rect width="900" height="1200" fill="url(#bg)"/>
  <g opacity="0.22" stroke="#fff"><path d="M120 0v1200M300 0v1200M480 0v1200M660 0v1200M840 0v1200"/><path d="M0 180h900M0 360h900M0 540h900M0 720h900M0 900h900"/></g>
  <circle cx="450" cy="330" r="132" fill="url(#skin)" opacity="0.9"/>
  <path d="M276 545c44-68 100-102 174-102s132 34 174 102l78 395H198l78-395Z" fill="#f4f7f8" opacity="0.14"/>
  <path d="M312 606c72 58 195 59 276 0" fill="none" stroke="#9ee8ff" stroke-width="3" opacity="0.6"/>
  <rect x="254" y="744" width="392" height="72" rx="36" fill="#9ee8ff" opacity="0.12"/>
  <text x="450" y="790" text-anchor="middle" fill="#f4f7f8" opacity="0.72" font-family="Arial" font-size="30">DU XIN</text>
</svg>