<svg xmlns="http://www.w3.org/2000/svg" width="1200" height="800" viewBox="0 0 1200 800">
  <defs>
    
  <filter id="grain-projectoperationabstractsvg" x="-20%" y="-20%" width="140%" height="140%">
    <feTurbulence type="fractalNoise" baseFrequency="0.74" numOctaves="4" stitchTiles="stitch"/>
    <feColorMatrix type="saturate" values="0"/>
    <feComponentTransfer>
      <feFuncA type="table" tableValues="0 0.13"/>
    </feComponentTransfer>
  </filter>
    <radialGradient id="orbA" cx="36%" cy="42%" r="72%">
      <stop offset="0" stop-color="#e8c35d" stop-opacity="0.9"/>
      <stop offset="0.46" stop-color="#e8c35d" stop-opacity="0.28"/>
      <stop offset="1" stop-color="#e8c35d" stop-opacity="0"/>
    </radialGradient>
    <radialGradient id="orbB" cx="62%" cy="34%" r="70%">
      <stop offset="0" stop-color="#b8ff20" stop-opacity="0.74"/>
      <stop offset="0.48" stop-color="#b8ff20" stop-opacity="0.2"/>
      <stop offset="1" stop-color="#b8ff20" stop-opacity="0"/>
    </radialGradient>
    <linearGradient id="panel" x1="0" x2="1" y1="0" y2="1">
      <stop offset="0" stop-color="#e8c35d" stop-opacity="0.72"/>
      <stop offset="0.58" stop-color="#f6f8f4" stop-opacity="0.25"/>
      <stop offset="1" stop-color="#b8ff20" stop-opacity="0.6"/>
    </linearGradient>
    <linearGradient id="base" x1="0" x2="1" y1="0" y2="1">
      <stop offset="0" stop-color="#060a0b"/>
      <stop offset="0.58" stop-color="#111818"/>
      <stop offset="1" stop-color="#020405"/>
    </linearGradient>
  </defs>
  <rect width="1200" height="800" fill="url(#base)"/>
  <rect width="1200" height="800" fill="url(#orbA)" opacity="0.28"/>
  <rect width="1200" height="800" fill="url(#orbB)" opacity="0.22"/>
  
  <g opacity="0.48">
    <path d="M 0 0 V 800" stroke="rgba(255,255,255,0.065)" stroke-width="1"/><path d="M 200 0 V 800" stroke="rgba(255,255,255,0.065)" stroke-width="1"/><path d="M 400 0 V 800" stroke="rgba(255,255,255,0.065)" stroke-width="1"/><path d="M 600 0 V 800" stroke="rgba(255,255,255,0.065)" stroke-width="1"/><path d="M 800 0 V 800" stroke="rgba(255,255,255,0.065)" stroke-width="1"/><path d="M 1000 0 V 800" stroke="rgba(255,255,255,0.065)" stroke-width="1"/><path d="M 1200 0 V 800" stroke="rgba(255,255,255,0.065)" stroke-width="1"/>
    <path d="M 0 0 H 1200" stroke="rgba(255,255,255,0.065)" stroke-width="1"/><path d="M 0 160 H 1200" stroke="rgba(255,255,255,0.065)" stroke-width="1"/><path d="M 0 320 H 1200" stroke="rgba(255,255,255,0.065)" stroke-width="1"/><path d="M 0 480 H 1200" stroke="rgba(255,255,255,0.065)" stroke-width="1"/><path d="M 0 640 H 1200" stroke="rgba(255,255,255,0.065)" stroke-width="1"/><path d="M 0 800 H 1200" stroke="rgba(255,255,255,0.065)" stroke-width="1"/>
  </g>
  <g opacity="0.98"><path d="M150 586 C270 514 328 398 464 428 C610 458 650 252 796 270 C904 284 954 210 1060 152" fill="none" stroke="#e8c35d" stroke-width="22" stroke-linecap="round" opacity="0.72"/><circle cx="284" cy="420" r="88" fill="url(#orbA)" opacity="0.48"/><circle cx="774" cy="280" r="116" fill="url(#orbB)" opacity="0.42"/><rect x="168" y="626" width="712" height="38" rx="19" fill="rgba(255,255,255,0.12)"/></g>
  <rect x="0" y="0" width="1200" height="800" fill="url(#grain-projectoperationabstractsvg)"/>
  <metadata>growth signal</metadata>
</svg>