<svg xmlns="http://www.w3.org/2000/svg" width="1400" height="900" viewBox="0 0 1400 900">
  <defs><linearGradient id="g" x1="0" x2="1" y1="0" y2="1"><stop stop-color="#111207"/><stop offset="1" stop-color="#05070a"/></linearGradient></defs>
  <rect width="1400" height="900" fill="url(#g)"/>
  <g stroke="#fff" stroke-opacity="0.12"><path d="M0 160h1400M0 320h1400M0 480h1400M0 640h1400M0 800h1400"/><path d="M220 0v900M440 0v900M660 0v900M880 0v900M1100 0v900M1320 0v900"/></g>
  <rect x="110" y="92" width="1180" height="716" rx="28" fill="#ffffff" opacity="0.055" stroke="#ffffff" stroke-opacity="0.16"/>
  <rect x="150" y="132" width="250" height="636" rx="20" fill="#000" opacity="0.22"/>
  <rect x="440" y="132" width="810" height="92" rx="20" fill="#d8f36a" opacity="0.18"/>
  <rect x="440" y="264" width="370" height="210" rx="22" fill="#fff" opacity="0.08"/>
  <rect x="850" y="264" width="400" height="210" rx="22" fill="#9ee8ff" opacity="0.15"/>
  <rect x="440" y="514" width="810" height="254" rx="22" fill="#fff" opacity="0.065"/>
  <path d="M500 690C590 590 680 650 760 560s180-85 260-12 120 18 168-28" fill="none" stroke="#d8f36a" stroke-width="8" stroke-linecap="round" opacity="0.72"/>
  <circle cx="1180" cy="172" r="24" fill="#9ee8ff" opacity="0.78"/>
  <text x="188" y="214" fill="#f4f7f8" font-family="Arial" font-size="46" font-weight="700">H5 EVENT</text>
  <text x="188" y="270" fill="#f4f7f8" opacity="0.55" font-family="Arial" font-size="22">Campaign / Interaction / KV</text>
</svg>