<svg xmlns="http://www.w3.org/2000/svg" width="1400" height="900" viewBox="0 0 1400 900">
  <defs><linearGradient id="g" x1="0" x2="1" y1="0" y2="1"><stop stop-color="#0b0715"/><stop offset="1" stop-color="#030506"/></linearGradient><filter id="blur"><feGaussianBlur stdDeviation="28"/></filter></defs>
  <rect width="1400" height="900" fill="url(#g)"/>
  <circle cx="980" cy="280" r="230" fill="#a78bfa" opacity="0.16" filter="url(#blur)"/>
  <circle cx="520" cy="620" r="280" fill="#b8ff20" opacity="0.12" filter="url(#blur)"/>
  <g stroke="#fff" stroke-opacity="0.11"><path d="M0 150h1400M0 300h1400M0 450h1400M0 600h1400M0 750h1400"/><path d="M200 0v900M400 0v900M600 0v900M800 0v900M1000 0v900M1200 0v900"/></g>
  <rect x="110" y="90" width="1180" height="720" rx="34" fill="#fff" opacity="0.06" stroke="#fff" stroke-opacity="0.16"/>
  <rect x="180" y="170" width="420" height="80" rx="40" fill="#a78bfa" opacity="0.82"/>
  <rect x="180" y="300" width="610" height="70" rx="35" fill="#fff" opacity="0.09"/>
  <rect x="180" y="405" width="430" height="210" rx="28" fill="#b8ff20" opacity="0.14"/>
  <rect x="650" y="405" width="560" height="210" rx="28" fill="#fff" opacity="0.08"/>
  <path d="M730 690C830 560 930 650 1018 528s150-60 210 6" fill="none" stroke="#a78bfa" stroke-width="10" stroke-linecap="round" opacity="0.7"/>
  <text x="210" y="226" fill="#071006" font-family="Arial" font-size="42" font-weight="900">AI FLOW</text>
  <text x="210" y="710" fill="#f6f8f4" font-family="Arial" font-size="52" font-weight="800">AIGC / Concept / Delivery</text>
</svg>